<svg xmlns="http://www.w3.org/2000/svg" version="1.1" viewBox="-5.0 -10.0 110.0 135.0">
 <path d="m72.223 40.742h-5.6484c-0.88672-9.7539-8.668-17.539-18.426-18.426v-3.7969c0-1.0234-0.82813-1.8516-1.8516-1.8516h-14.816c-1.0234 0-1.8516 0.82812-1.8516 1.8516v3.7969c-9.7539 0.88672-17.539 8.668-18.426 18.426h-5.6484c-1.0234 0-1.8516 0.82812-1.8516 1.8516v9.2578c0 1.0234 0.82812 1.8516 1.8516 1.8516h1.8516v27.66c0 5.1719 4.207 9.3789 9.3789 9.3789h44.207c5.1719 0 9.3789-4.207 9.3789-9.3789v-27.66h1.8516c1.0234 0 1.8516-0.82812 1.8516-1.8516v-9.2578c0-1.0234-0.82812-1.8516-1.8516-1.8516zm-38.891-20.371h11.109v1.8516h-11.109zm-1.8516 5.5547h14.816c8.5664 0 15.641 6.4922 16.562 14.816h-47.941c0.92578-8.3203 8-14.816 16.562-14.816zm35.184 55.438c0 3.1289-2.5469 5.6758-5.6758 5.6758l-44.203-0.003906c-3.1289 0-5.6758-2.5469-5.6758-5.6758v-27.66h55.555zm3.7031-31.363h-62.961v-5.5547h62.965v5.5547zm-46.297 11.109v-3.7031c0-1.0234 0.82813-1.8516 1.8516-1.8516s1.8516 0.82812 1.8516 1.8516v1.8516h18.52v-1.8516c0-1.0234 0.82812-1.8516 1.8516-1.8516 1.0234 0 1.8516 0.82812 1.8516 1.8516v3.7031c0 1.0234-0.82812 1.8516-1.8516 1.8516h-22.223c-1.0234 0-1.8516-0.82813-1.8516-1.8516zm70.375-51.852h-22.223c-1.0234 0-1.8516 0.82813-1.8516 1.8516v24.074c0 1.0234 0.82812 1.8516 1.8516 1.8516h9.2578v25.926h-1.8516c-0.96484 0-1.7734 0.74609-1.8477 1.7109l-1.8516 24.074c-0.039063 0.51562 0.13672 1.0234 0.48828 1.4023 0.34766 0.37891 0.84375 0.59375 1.3555 0.59375h11.109c0.51563 0 1.0078-0.21484 1.3555-0.59375 0.35156-0.37891 0.52734-0.88672 0.48828-1.4023l-1.8516-24.074c-0.074219-0.96484-0.87891-1.7109-1.8477-1.7109h-1.8516v-25.926h9.2578c1.0234 0 1.8516-0.82812 1.8516-1.8516l0.011719-24.074c0-1.0234-0.82812-1.8516-1.8516-1.8516zm-7.5547 77.777h-7.1094l1.5664-20.371h3.9766zm5.7031-53.703h-18.52v-20.367h18.52v20.371zm-11.109-3.7031v-12.965c0-1.0234 0.82812-1.8516 1.8516-1.8516 1.0234 0 1.8516 0.82812 1.8516 1.8516v12.965c0 1.0234-0.82812 1.8516-1.8516 1.8516-1.0234 0-1.8516-0.82812-1.8516-1.8516zm-5.5547 0v-12.965c0-1.0234 0.82812-1.8516 1.8516-1.8516s1.8516 0.82812 1.8516 1.8516v12.965c0 1.0234-0.82812 1.8516-1.8516 1.8516s-1.8516-0.82812-1.8516-1.8516zm11.109 0v-12.965c0-1.0234 0.82813-1.8516 1.8516-1.8516s1.8516 0.82812 1.8516 1.8516v12.965c0 1.0234-0.82813 1.8516-1.8516 1.8516s-1.8516-0.82812-1.8516-1.8516z"/>
<text x="0.0" y="117.5" font-size="5.0" font-weight="bold" font-family="Arbeit Regular, Helvetica, Arial-Unicode, Arial, Sans-serif" fill="#000000">Created by Gofficon</text><text x="0.0" y="122.5" font-size="5.0" font-weight="bold" font-family="Arbeit Regular, Helvetica, Arial-Unicode, Arial, Sans-serif" fill="#000000">from Noun Project</text></svg>