<svg xmlns="http://www.w3.org/2000/svg" version="1.1" viewBox="-5.0 -10.0 110.0 135.0">
 <path d="m95.43 6.6602h-1.4453l0.003906-0.078125c0-3.2148-2.6133-5.8281-5.8281-5.8281h-1.9062c-3.2148 0-5.8281 2.6133-5.8281 5.8281v2.8867h-4.0586c-2.2031 0-3.9922 1.793-3.9922 3.9922v0.72656h-44.75v-0.72656c0-2.2031-1.793-3.9922-3.9922-3.9922h-4.0625l-0.003906-2.8867c0-3.2148-2.6133-5.8281-5.8281-5.8281h-1.8984c-3.2148 0-5.8281 2.6133-5.8281 5.8281v0.078125h-1.4414c-2.5195 0-4.5703 2.0508-4.5703 4.5664v15.957c0 2.5195 2.0508 4.5703 4.5703 4.5703h1.4688c0.13672 3.0938 2.6758 5.5742 5.8008 5.5742h1.9023c0.98047 0 1.8906-0.26562 2.7031-0.69531v26.246l-2.8984 0.003906c-2.5469 0-4.6172 2.0703-4.6172 4.6172v0.42578c0 2.5469 2.0703 4.6172 4.6172 4.6172h2.8945v17.043l-0.85547-0.003907c-2.5469 0-4.6172 2.0703-4.6172 4.6172v0.42578c0 2.5469 2.0703 4.6172 4.6172 4.6172h12.898c2.5469 0 4.6172-2.0703 4.6172-4.6172v-0.42578c0-2.5469-2.0703-4.6172-4.6172-4.6172h-0.85938v-3.1172h14.316v3.1719c-2.2852 0.27344-4.0703 2.2031-4.0703 4.5625v0.42578c0 2.5469 2.0703 4.6172 4.6172 4.6172h15.023c2.5469 0 4.6172-2.0703 4.6172-4.6172v-0.42578c0-2.3633-1.7891-4.293-4.0781-4.5625v-3.1719h14.324v3.1172h-0.85938c-2.5469 0-4.6172 2.0703-4.6172 4.6172v0.42578c0 2.5469 2.0703 4.6172 4.6172 4.6172h12.891c2.5469 0 4.6172-2.0703 4.6172-4.6172v-0.42578c0-2.5469-2.0703-4.6172-4.6172-4.6172h-0.85938l0.003906-17.039h3.7578c2.5469 0 4.6172-2.0703 4.6172-4.6172v-0.42578c0-2.5469-2.0703-4.6172-4.6172-4.6172h-3.7578v-26.25c0.8125 0.42969 1.7227 0.69531 2.7031 0.69531h1.9062c3.125 0 5.6641-2.4805 5.8008-5.5742h1.4688c2.5195 0 4.5703-2.0508 4.5703-4.5703v-15.957c0-2.5156-2.0508-4.5664-4.5703-4.5664zm-27.734 56.223c-0.39844-3.0273-2.9688-5.3789-6.1016-5.3789h-23.199c-3.1367 0-5.707 2.3516-6.1055 5.3789h-4.6641v-38.984h44.75v38.984zm4.6797 15.285h-14.324v-3.3047h3.543c1.9414 0 3.6562-0.91797 4.7891-2.3203h5.9922zm-44.75-5.625h5.9766c1.1367 1.4023 2.8516 2.3203 4.793 2.3203h3.5469v3.3047h-14.316zm37.027-3.8633c0 1.6836-1.3711 3.0547-3.0547 3.0547h-23.199c-1.6875 0-3.0625-1.3711-3.0625-3.0547v-4.9961c0-1.6875 1.375-3.0586 3.0625-3.0586h23.199c1.6836 0 3.0547 1.3711 3.0547 3.0586zm-19.586 6.1836h9.8594v14.723h-9.8594zm27.309-57.551v3.4609h-44.75v-3.4609zm-69.25 9.875v-15.961c0-0.79687 0.64844-1.4414 1.4453-1.4414h1.4453v18.844h-1.4453c-0.79687 0-1.4453-0.64453-1.4453-1.4414zm10.617 7.0156h-1.9023c-1.4922 0-2.7031-1.2109-2.7031-2.7031v-24.918c0-1.4922 1.2109-2.7031 2.7031-2.7031h1.9023c1.4922 0 2.7031 1.2109 2.7031 2.7031v24.922c-0.003906 1.4883-1.2148 2.6992-2.7031 2.6992zm5.8242-2.7031v-18.906h4.0625c0.46875 0 0.86719 0.39844 0.86719 0.86719v49.422h-4.9336zm-7.5117 36.426v-0.42578c0-0.82422 0.66797-1.4922 1.4922-1.4922h18.66v2.6758c0 0.25 0.042969 0.49219 0.074219 0.73438h-18.734c-0.82422 0-1.4922-0.67188-1.4922-1.4922zm17.918 26.277v0.42578c0 0.82422-0.66797 1.4922-1.4922 1.4922h-12.895c-0.82422 0-1.4922-0.66797-1.4922-1.4922v-0.42578c0-0.82422 0.66797-1.4922 1.4922-1.4922h12.898c0.82031-0.003907 1.4883 0.66797 1.4883 1.4922zm-10.406-4.6211v-17.039h4.9336v17.043zm8.0586-6.2422v-2.0469h14.316v2.0469zm31.379 10.863v0.42578c0 0.82422-0.66797 1.4922-1.4922 1.4922h-15.023c-0.82422 0-1.4922-0.66797-1.4922-1.4922v-0.42578c0-0.82422 0.66797-1.4922 1.4922-1.4922h15.023c0.82422-0.003907 1.4922 0.66797 1.4922 1.4922zm-0.95312-10.863v-2.0469h14.324v2.0469zm27.852 10.863v0.42578c0 0.82422-0.66797 1.4922-1.4922 1.4922h-12.891c-0.82422 0-1.4922-0.66797-1.4922-1.4922v-0.42578c0-0.82422 0.66797-1.4922 1.4922-1.4922h12.891c0.82422-0.003907 1.4922 0.66797 1.4922 1.4922zm-5.4766-4.6211h-4.9258v-17.039h4.9258zm8.3789-22.082v0.42578c0 0.82422-0.66797 1.4922-1.4922 1.4922h-19.609c0.03125-0.24219 0.074219-0.48438 0.074219-0.73438v-2.6758h19.531c0.82422 0 1.4961 0.66797 1.4961 1.4922zm-13.305-4.6172v-49.422c0-0.46875 0.39844-0.86719 0.86719-0.86719h4.0586v50.289zm15.363-31.383c0 1.4922-1.2109 2.7031-2.7031 2.7031h-1.9062c-1.4922 0-2.7031-1.2109-2.7031-2.7031v-24.918c0-1.4922 1.2148-2.7031 2.7031-2.7031h1.9062c1.4922 0 2.7031 1.2109 2.7031 2.7031zm6.0117-4.3125c0 0.79688-0.64844 1.4453-1.4453 1.4453h-1.4453l0.003906-18.848h1.4453c0.79297 0 1.4414 0.64844 1.4414 1.4414z"/>
<text x="0.0" y="117.5" font-size="5.0" font-weight="bold" font-family="Arbeit Regular, Helvetica, Arial-Unicode, Arial, Sans-serif" fill="#000000">Created by Rakhmat Setiawan</text><text x="0.0" y="122.5" font-size="5.0" font-weight="bold" font-family="Arbeit Regular, Helvetica, Arial-Unicode, Arial, Sans-serif" fill="#000000">from Noun Project</text></svg>