<svg xmlns="http://www.w3.org/2000/svg" viewBox="0 0 48 60" x="0px" y="0px"><title>6 listen music</title><path d="M31.062,9.667a2.865,2.865,0,0,0,.683-.083,2.659,2.659,0,0,0,1.295-.716,1.692,1.692,0,0,0,.439-.822c.006-.022.02-.04.024-.063L34.487,2.9l.314.561a2.484,2.484,0,0,1,.273,1.694l-.091.47a.75.75,0,0,0,1.473.285l.091-.47a4,4,0,0,0-.438-2.714L34.794.383A.738.738,0,0,0,34.021.01a.749.749,0,0,0-.618.6L32.3,6.331a2.786,2.786,0,0,0-2.636.707,1.545,1.545,0,0,0-.442,1.433A1.768,1.768,0,0,0,31.062,9.667Zm.246-1.887a1.09,1.09,0,0,1,.677.019,1.289,1.289,0,0,1-1.271.308A1.1,1.1,0,0,1,31.308,7.78Z"/><path d="M36.221,13.54A1.533,1.533,0,0,0,37.345,16a2.436,2.436,0,0,0,.335.023,3,3,0,0,0,1.225-.278,2.863,2.863,0,0,0,1.214-1.014,1.774,1.774,0,0,0,.29-.947c0-.022.013-.041.013-.063V6.284l3.392-1.536v5.3a2.87,2.87,0,0,0-1.487.26,2.632,2.632,0,0,0-1.409,1.4,1.535,1.535,0,0,0,.021,1.177,1.623,1.623,0,0,0,1.3.893,2.454,2.454,0,0,0,.334.023,2.978,2.978,0,0,0,1.226-.279,2.63,2.63,0,0,0,1.41-1.4,1.636,1.636,0,0,0,.1-.613l0-.01V3.584A.75.75,0,0,0,44.255,2.9L39.362,5.117a.749.749,0,0,0-.44.683v6.467a2.984,2.984,0,0,0-2.7,1.273Zm6.952-1.378a1.373,1.373,0,0,1-.862.127c0-.09.185-.406.64-.614a1.461,1.461,0,0,1,.6-.142.606.606,0,0,1,.257.044A1.154,1.154,0,0,1,43.173,12.162ZM38.058,13.89a1.474,1.474,0,0,1,.6-.142.623.623,0,0,1,.257.044,1.147,1.147,0,0,1-.638.585,1.384,1.384,0,0,1-.862.128C37.416,14.414,37.6,14.1,38.058,13.89Z"/><path d="M5.592,47.993A.723.723,0,0,0,5.7,48a.749.749,0,0,0,.742-.648,4.28,4.28,0,0,1,3.04-3.639L19.5,40.739a4.575,4.575,0,0,0,8.954-.008l10.066,2.987a4.271,4.271,0,0,1,3.021,3.634.75.75,0,0,0,.742.648.713.713,0,0,0,.1-.007.75.75,0,0,0,.641-.845,5.763,5.763,0,0,0-4.1-4.874L28.581,39.205v-2.46a.77.77,0,0,0-.017-.086,9.5,9.5,0,0,0,3.815-5.869h2.946a2.049,2.049,0,0,0,2.047-2.047V25.461a2.039,2.039,0,0,0-1.01-1.754,11.433,11.433,0,0,0,.111-1.5c0-5.77-3.287-11.935-12.513-11.935S11.447,16.436,11.447,22.206a11.433,11.433,0,0,0,.111,1.5,2.039,2.039,0,0,0-1.01,1.754v3.282A2.049,2.049,0,0,0,12.6,30.79h2.946c.29,2.337,1.988,4.432,3.865,5.9,0,.02-.011.037-.011.058v2.46L9.068,42.27a5.77,5.77,0,0,0-4.117,4.878A.75.75,0,0,0,5.592,47.993Zm21.489-8.358a.734.734,0,0,0-.031.155,3.078,3.078,0,1,1-6.155,0l0-.011,0-.014V37.7a6.961,6.961,0,0,0,3.081,1.115,6.992,6.992,0,0,0,3.105-1.137Zm8.253-14.719c.022.006.039.021.062.025a.642.642,0,0,0,.116.011.544.544,0,0,1,.36.509v3.282a.547.547,0,0,1-.547.547H32.433l0-4.375h2.905ZM23.96,11.771c6.9,0,11.013,3.9,11.013,10.435a9.995,9.995,0,0,1-.083,1.209h-.245c-.105-3.439-.927-6-2.522-7.795a.75.75,0,1,0-1.121,1c1.346,1.514,2.045,3.749,2.144,6.8h-.834C31.963,21.75,30.986,19.6,28.98,19.6a6.986,6.986,0,0,0-2.881.718,5.216,5.216,0,0,1-2.127.568,5.212,5.212,0,0,1-2.126-.568,6.992,6.992,0,0,0-2.883-.718c-1.98,0-2.968,2.1-3.341,3.816h-.848c.2-6.423,3.056-9.309,9.186-9.309a10.553,10.553,0,0,1,5.664,1.346.75.75,0,1,0,.8-1.268,12,12,0,0,0-6.465-1.578C17,12.606,13.5,16.151,13.276,23.415H13.03a9.995,9.995,0,0,1-.083-1.209C12.947,15.671,17.064,11.771,23.96,11.771ZM16.986,30.1V28.686a.75.75,0,0,0-1.5,0v.6H12.6a.547.547,0,0,1-.547-.547V25.461a.538.538,0,0,1,.418-.52c.02,0,.039,0,.058,0s.04-.019.062-.025h2.9v1.679a.75.75,0,0,0,1.5,0l-.006-2.3c.105-.83.7-3.2,1.983-3.2a5.611,5.611,0,0,1,2.3.6,6.557,6.557,0,0,0,2.712.687,6.57,6.57,0,0,0,2.714-.688,5.612,5.612,0,0,1,2.294-.6c1.286,0,1.859,2.365,1.954,3.105v5.9c0,3.807-5.353,7.22-6.958,7.22S16.986,33.906,16.986,30.1Z"/><text x="0" y="63" fill="#000000" font-size="5px" font-weight="bold" font-family="'Helvetica Neue', Helvetica, Arial-Unicode, Arial, Sans-serif">Created by Koson Rattanaphan</text><text x="0" y="68" fill="#000000" font-size="5px" font-weight="bold" font-family="'Helvetica Neue', Helvetica, Arial-Unicode, Arial, Sans-serif">from the Noun Project</text></svg>